<svg width="586" height="900" fill="none" xmlns="http://www.w3.org/2000/svg">
  <path fill="#E6EEDD" d="M0 0h586v900H0z"/>
  <path d="M0 517c0-22.091 17.909-40 40-40v40H0z" fill="#F98560"/>
  <path d="M0 197c22.091 0 40 17.909 40 40H0v-40zm0 360c22.091 0 40 17.909 40 40H0v-40z" fill="#2C463C"/>
  <path d="M0 277c22.091 0 40 17.909 40 40H0v-40z" fill="#F98560"/>
  <path d="M0 637c0-22.091 17.909-40 40-40v40H0zm0-320c22.091 0 40 17.909 40 40H0v-40zm40-200C17.909 117 0 99.091 0 77h40v40zM0 637c22.091 0 40 17.909 40 40H0v-40zm0-280c22.091 0 40 17.909 40 40H0v-40zm40 400c-22.091 0-40-17.909-40-40h40v40zM0 437c22.091 0 40 17.909 40 40H0v-40zm0-280c22.091 0 40 17.909 40 40H0v-40zm80 320c0 22.091-17.909 40-40 40v-40h40zm40 0c22.091 0 40 17.909 40 40h-40v-40zM80 237c-22.091 0-40-17.909-40-40h40v40zM40 517c22.091 0 40 17.909 40 40H40v-40z" fill="#2C463C"/>
  <g filter="url(#filter0_d)">
    <path d="M120 557c0-22.091 17.909-40 40-40v40h-40z" fill="#F98560"/>
  </g>
  <path d="M80 277c-22.091 0-40-17.909-40-40h40v40z" fill="#F98560"/>
  <path d="M40 557c22.091 0 40 17.909 40 40H40v-40zm120 0c0 22.091-17.909 40-40 40v-40h40zM40 317c0-22.091 17.909-40 40-40v40H40z" fill="#2C463C"/>
  <path d="M120 277c22.091 0 40 17.909 40 40h-40v-40zM80 597c0 22.091-17.909 40-40 40v-40h40zm0-280c0 22.091-17.909 40-40 40v-40h40z" fill="#F98560"/>
  <path d="M160 357c-22.091 0-40-17.909-40-40h40v40z" fill="#2C463C"/>
  <path d="M120 77c22.091 0 40 17.909 40 40h-40V77z" fill="#F98560"/>
  <path d="M40 677c22.091 0 40 17.909 40 40H40v-40zm80 0c22.091 0 40 17.909 40 40h-40v-40z" fill="#2C463C"/>
  <path d="M40 437c0-22.091 17.909-40 40-40v40H40zm0-280c0-22.091 17.909-40 40-40v40H40z" fill="#F98560"/>
  <path d="M120 397c22.091 0 40 17.909 40 40h-40v-40zm40-280c0 22.091-17.909 40-40 40v-40h40zM40 717c22.091 0 40 17.909 40 40H40v-40zm80 0c22.091 0 40 17.909 40 40h-40v-40zM80 437c0 22.091-17.909 40-40 40v-40h40zm0-280c0 22.091-17.909 40-40 40v-40h40z" fill="#2C463C"/>
  <path d="M80 477c22.091 0 40 17.909 40 40H80v-40zm0-280c22.091 0 40 17.909 40 40H80v-40z" fill="#F98560"/>
  <path d="M80 517c22.091 0 40 17.909 40 40H80v-40zm40-280c0 22.091-17.909 40-40 40v-40h40zM80 637c0-22.091 17.909-40 40-40v40H80zm0-320c22.091 0 40 17.909 40 40H80v-40zm40-200c-22.091 0-40-17.909-40-40h40v40z" fill="#2C463C"/>
  <path d="M120 637c0 22.091-17.909 40-40 40v-40h40z" fill="#F98560"/>
  <path d="M120 357c0 22.091-17.909 40-40 40v-40h40zM80 677c22.091 0 40 17.909 40 40H80v-40z" fill="#2C463C"/>
  <path d="M80 397c22.091 0 40 17.909 40 40H80v-40zm0-240c0-22.091 17.909-40 40-40v40H80zm0 600c0-22.091 17.909-40 40-40v40H80z" fill="#F98560"/>
  <path d="M80 437c22.091 0 40 17.909 40 40H80v-40zm0-280c22.091 0 40 17.909 40 40H80v-40z" fill="#2C463C"/>
  <path d="M160 797c0-22.091 17.909-40 40-40v40h-40z" fill="#F98560"/>
  <path d="M160 477c22.091 0 40 17.909 40 40h-40v-40zm0 360c22.091 0 40 17.909 40 40h-40v-40z" fill="#2C463C"/>
  <path d="M160 557c22.091 0 40 17.909 40 40h-40v-40z" fill="#F98560"/>
  <path d="M160 917c0-22.091 17.909-40 40-40v40h-40zm0-320c22.091 0 40 17.909 40 40h-40v-40zm40-200c-22.091 0-40-17.909-40-40h40v40zm-40 240c22.091 0 40 17.909 40 40h-40v-40zm0 80c22.091 0 40 17.909 40 40h-40v-40zm0-280c22.091 0 40 17.909 40 40h-40v-40zm80 320c0 22.091-17.909 40-40 40v-40h40zm40 0c22.091 0 40 17.909 40 40h-40v-40zm-40-240c-22.091 0-40-17.909-40-40h40v40zm-40 280c22.091 0 40 17.909 40 40h-40v-40z" fill="#2C463C"/>
  <g filter="url(#filter1_d)">
    <path d="M280 837c0-22.091 17.909-40 40-40v40h-40z" fill="#F98560"/>
  </g>
  <path d="M240 557c-22.091 0-40-17.909-40-40h40v40z" fill="#F98560"/>
  <path d="M200 837c22.091 0 40 17.909 40 40h-40v-40zm120 0c0 22.091-17.909 40-40 40v-40h40zM200 597c0-22.091 17.909-40 40-40v40h-40z" fill="#2C463C"/>
  <path d="M280 557c22.091 0 40 17.909 40 40h-40v-40zm-40 320c0 22.091-17.909 40-40 40v-40h40zm0-280c0 22.091-17.909 40-40 40v-40h40z" fill="#F98560"/>
  <path d="M320 637c-22.091 0-40-17.909-40-40h40v40z" fill="#2C463C"/>
  <path d="M280 357c22.091 0 40 17.909 40 40h-40v-40zm-80 360c0-22.091 17.909-40 40-40v40h-40zm0-280c0-22.091 17.909-40 40-40v40h-40z" fill="#F98560"/>
  <path d="M280 677c22.091 0 40 17.909 40 40h-40v-40zm40-280c0 22.091-17.909 40-40 40v-40h40zm-80 320c0 22.091-17.909 40-40 40v-40h40zm0-280c0 22.091-17.909 40-40 40v-40h40z" fill="#2C463C"/>
  <path d="M240 757c22.091 0 40 17.909 40 40h-40v-40zm0-280c22.091 0 40 17.909 40 40h-40v-40z" fill="#F98560"/>
  <path d="M240 797c22.091 0 40 17.909 40 40h-40v-40zm40-280c0 22.091-17.909 40-40 40v-40h40zm-40 400c0-22.091 17.909-40 40-40v40h-40zm0-320c22.091 0 40 17.909 40 40h-40v-40zm40-200c-22.091 0-40-17.909-40-40h40v40zm0 240c0 22.091-17.909 40-40 40v-40h40z" fill="#2C463C"/>
  <path d="M240 677c22.091 0 40 17.909 40 40h-40v-40zm0-240c0-22.091 17.909-40 40-40v40h-40z" fill="#F98560"/>
  <path d="M240 717c22.091 0 40 17.909 40 40h-40v-40zm0-280c22.091 0 40 17.909 40 40h-40v-40zm253.852-293.311c-7.088-.001-12.815-5.747-12.793-12.834l.015-4.917a1.484 1.484 0 011.484-1.478h2.798a8.525 8.525 0 018.529 8.556l-.033 10.673z" fill="#2C463C"/>
  <path d="M493.75 142.98c6.976 1.23 11.615 7.879 10.363 14.851l-.872 4.855a1.486 1.486 0 01-1.719 1.2l-2.753-.486a8.517 8.517 0 01-6.909-9.9l1.89-10.52z" fill="#F98560"/>
  <path d="M472.944 150.654a1.48 1.48 0 01-.179-2.087l3.207-3.803c4.56-5.408 12.646-6.102 18.061-1.551l-6.914 8.2c-3.04 3.606-8.431 4.068-12.041 1.034l-2.134-1.793z" fill="#F98560"/>
  <path d="M515.92 139.55c.36.43.303 1.069-.127 1.428l-4.181 3.495c-5.426 4.536-13.505 3.816-18.043-1.608l8.234-6.883a8.543 8.543 0 0112.029 1.072l2.088 2.496z" fill="#2C463C"/>
  <defs>
    <filter id="filter0_d" x="116" y="517" width="48" height="48" filterUnits="userSpaceOnUse" color-interpolation-filters="sRGB">
      <feFlood flood-opacity="0" result="BackgroundImageFix"/>
      <feColorMatrix in="SourceAlpha" values="0 0 0 0 0 0 0 0 0 0 0 0 0 0 0 0 0 0 127 0"/>
      <feOffset dy="4"/>
      <feGaussianBlur stdDeviation="2"/>
      <feColorMatrix values="0 0 0 0 0 0 0 0 0 0 0 0 0 0 0 0 0 0 0.25 0"/>
      <feBlend in2="BackgroundImageFix" result="effect1_dropShadow"/>
      <feBlend in="SourceGraphic" in2="effect1_dropShadow" result="shape"/>
    </filter>
    <filter id="filter1_d" x="276" y="797" width="48" height="48" filterUnits="userSpaceOnUse" color-interpolation-filters="sRGB">
      <feFlood flood-opacity="0" result="BackgroundImageFix"/>
      <feColorMatrix in="SourceAlpha" values="0 0 0 0 0 0 0 0 0 0 0 0 0 0 0 0 0 0 127 0"/>
      <feOffset dy="4"/>
      <feGaussianBlur stdDeviation="2"/>
      <feColorMatrix values="0 0 0 0 0 0 0 0 0 0 0 0 0 0 0 0 0 0 0.25 0"/>
      <feBlend in2="BackgroundImageFix" result="effect1_dropShadow"/>
      <feBlend in="SourceGraphic" in2="effect1_dropShadow" result="shape"/>
    </filter>
  </defs>
</svg>
