<svg width="586" height="900" viewBox="0 0 586 900" fill="none" xmlns="http://www.w3.org/2000/svg">
<rect width="586" height="900" fill="#FAF7F2"/>
<rect opacity="0.2" width="586" height="900" fill="#FAF7F2"/>
<path d="M0 517C-9.65645e-07 494.909 17.9086 477 40 477L40 517L0 517Z" fill="#F98560"/>
<path d="M0 197C22.0914 197 40 214.909 40 237H0V197Z" fill="#306060"/>
<path d="M0 557C22.0914 557 40 574.909 40 597H0V557Z" fill="#306060"/>
<path d="M0 277C22.0914 277 40 294.909 40 317H0V277Z" fill="#F98560"/>
<path d="M0 637C2.63437e-07 614.909 17.9086 597 40 597L40 637L0 637Z" fill="#306060"/>
<path d="M0 317C22.0914 317 40 334.909 40 357H0V317Z" fill="#306060"/>
<path d="M40 117C17.9086 117 1.56562e-06 99.0914 3.49691e-06 77L40 77L40 117Z" fill="#306060"/>
<path d="M0 637C22.0914 637 40 654.909 40 677H0V637Z" fill="#306060"/>
<path d="M0 357C22.0914 357 40 374.909 40 397H0V357Z" fill="#306060"/>
<path d="M40 757C17.9086 757 1.56562e-06 739.091 3.49691e-06 717L40 717L40 757Z" fill="#306060"/>
<path d="M0 437C22.0914 437 40 454.909 40 477H0V437Z" fill="#306060"/>
<path d="M0 157C22.0914 157 40 174.909 40 197H0V157Z" fill="#306060"/>
<path d="M80 477C80 499.091 62.0914 517 40 517L40 477L80 477Z" fill="#306060"/>
<path d="M120 477C142.091 477 160 494.909 160 517H120V477Z" fill="#306060"/>
<path d="M80.0001 237C57.9087 237 40.0001 219.091 40.0001 197H80.0001L80.0001 237Z" fill="#306060"/>
<path d="M40 517C62.0914 517 80 534.909 80 557H40V517Z" fill="#306060"/>
<g filter="url(#filter0_d)">
<path d="M120 557C120 534.909 137.909 517 160 517L160 557L120 557Z" fill="#F98560"/>
</g>
<path d="M80.0001 277C57.9087 277 40.0001 259.091 40.0001 237H80.0001L80.0001 277Z" fill="#F98560"/>
<path d="M40 557C62.0914 557 80 574.909 80 597H40V557Z" fill="#306060"/>
<path d="M160 557C160 579.091 142.091 597 120 597L120 557L160 557Z" fill="#306060"/>
<path d="M40 317C40 294.909 57.9086 277 80 277L80 317L40 317Z" fill="#306060"/>
<path d="M120 277C142.091 277 160 294.909 160 317H120V277Z" fill="#F98560"/>
<path d="M80 597C80 619.091 62.0914 637 40 637L40 597L80 597Z" fill="#F98560"/>
<path d="M80 317C80 339.091 62.0914 357 40 357L40 317L80 317Z" fill="#F98560"/>
<path d="M160 357C137.909 357 120 339.091 120 317L160 317L160 357Z" fill="#306060"/>
<path d="M120 77C142.091 77 160 94.9086 160 117H120V77Z" fill="#F98560"/>
<path d="M0 37C22.0914 37 40 54.9086 40 77H0V37Z" fill="#F98560"/>
<path d="M40 677C62.0914 677 80 694.909 80 717H40V677Z" fill="#306060"/>
<path d="M120 677C142.091 677 160 694.909 160 717H120V677Z" fill="#306060"/>
<path d="M40 437C40 414.909 57.9086 397 80 397L80 437L40 437Z" fill="#F98560"/>
<path d="M40 157C40 134.909 57.9086 117 80 117L80 157L40 157Z" fill="#F98560"/>
<path d="M120 397C142.091 397 160 414.909 160 437H120V397Z" fill="#306060"/>
<path d="M160 117C160 139.091 142.091 157 120 157L120 117L160 117Z" fill="#306060"/>
<path d="M40 717C62.0914 717 80 734.909 80 757H40V717Z" fill="#306060"/>
<path d="M120 717C142.091 717 160 734.909 160 757H120V717Z" fill="#306060"/>
<path d="M80 437C80 459.091 62.0914 477 40 477L40 437L80 437Z" fill="#306060"/>
<path d="M80 157C80 179.091 62.0914 197 40 197L40 157L80 157Z" fill="#306060"/>
<path d="M80 477C102.091 477 120 494.909 120 517H80V477Z" fill="#F98560"/>
<path d="M80 197C102.091 197 120 214.909 120 237H80V197Z" fill="#F98560"/>
<path d="M80 517C102.091 517 120 534.909 120 557H80V517Z" fill="#306060"/>
<path d="M120 237C120 259.091 102.091 277 80 277L80 237L120 237Z" fill="#306060"/>
<path d="M80 637C80 614.909 97.9086 597 120 597L120 637L80 637Z" fill="#306060"/>
<path d="M80 317C102.091 317 120 334.909 120 357H80V317Z" fill="#306060"/>
<path d="M120 117C97.9086 117 80 99.0914 80 77L120 77L120 117Z" fill="#306060"/>
<path d="M120 637C120 659.091 102.091 677 80 677L80 637L120 637Z" fill="#F98560"/>
<path d="M120 357C120 379.091 102.091 397 80 397L80 357L120 357Z" fill="#306060"/>
<path d="M80 677C102.091 677 120 694.909 120 717H80V677Z" fill="#306060"/>
<path d="M80 397C102.091 397 120 414.909 120 437H80V397Z" fill="#F98560"/>
<path d="M80 157C80 134.909 97.9086 117 120 117L120 157L80 157Z" fill="#F98560"/>
<path d="M80 757C80 734.909 97.9086 717 120 717L120 757L80 757Z" fill="#F98560"/>
<path d="M80 437C102.091 437 120 454.909 120 477H80V437Z" fill="#306060"/>
<path d="M80 157C102.091 157 120 174.909 120 197H80V157Z" fill="#306060"/>
<path d="M160 797C160 774.909 177.909 757 200 757L200 797L160 797Z" fill="#F98560"/>
<path d="M160 477C182.091 477 200 494.909 200 517H160V477Z" fill="#306060"/>
<path d="M160 837C182.091 837 200 854.909 200 877H160V837Z" fill="#306060"/>
<path d="M160 557C182.091 557 200 574.909 200 597H160V557Z" fill="#F98560"/>
<path d="M160 917C160 894.909 177.909 877 200 877L200 917L160 917Z" fill="#306060"/>
<path d="M160 597C182.091 597 200 614.909 200 637H160V597Z" fill="#306060"/>
<path d="M200 397C177.909 397 160 379.091 160 357L200 357L200 397Z" fill="#306060"/>
<path d="M160 637C182.091 637 200 654.909 200 677H160V637Z" fill="#306060"/>
<path d="M160 717C182.091 717 200 734.909 200 757H160V717Z" fill="#306060"/>
<path d="M160 437C182.091 437 200 454.909 200 477H160V437Z" fill="#306060"/>
<path d="M240 757C240 779.091 222.091 797 200 797L200 757L240 757Z" fill="#306060"/>
<path d="M280 757C302.091 757 320 774.909 320 797H280V757Z" fill="#306060"/>
<path d="M240 517C217.909 517 200 499.091 200 477H240V517Z" fill="#306060"/>
<path d="M200 797C222.091 797 240 814.909 240 837H200V797Z" fill="#306060"/>
<path d="M280 837C280 814.909 297.909 797 320 797L320 837L280 837Z" fill="#F98560"/>
<path d="M240 557C217.909 557 200 539.091 200 517H240V557Z" fill="#F98560"/>
<path d="M200 837C222.091 837 240 854.909 240 877H200V837Z" fill="#306060"/>
<path d="M320 837C320 859.091 302.091 877 280 877L280 837L320 837Z" fill="#306060"/>
<path d="M200 597C200 574.909 217.909 557 240 557L240 597L200 597Z" fill="#306060"/>
<path d="M280 557C302.091 557 320 574.909 320 597H280V557Z" fill="#F98560"/>
<path d="M240 877C240 899.091 222.091 917 200 917L200 877L240 877Z" fill="#F98560"/>
<path d="M240 597C240 619.091 222.091 637 200 637L200 597L240 597Z" fill="#F98560"/>
<path d="M320 637C297.909 637 280 619.091 280 597L320 597L320 637Z" fill="#306060"/>
<path d="M280 357C302.091 357 320 374.909 320 397H280V357Z" fill="#F98560"/>
<path d="M200 717C200 694.909 217.909 677 240 677L240 717L200 717Z" fill="#F98560"/>
<path d="M200 437C200 414.909 217.909 397 240 397L240 437L200 437Z" fill="#F98560"/>
<path d="M280 677C302.091 677 320 694.909 320 717H280V677Z" fill="#306060"/>
<path d="M320 397C320 419.091 302.091 437 280 437L280 397L320 397Z" fill="#306060"/>
<path d="M240 717C240 739.091 222.091 757 200 757L200 717L240 717Z" fill="#306060"/>
<path d="M240 437C240 459.091 222.091 477 200 477L200 437L240 437Z" fill="#306060"/>
<path d="M240 757C262.091 757 280 774.909 280 797H240V757Z" fill="#F98560"/>
<path d="M240 477C262.091 477 280 494.909 280 517H240V477Z" fill="#F98560"/>
<path d="M240 797C262.091 797 280 814.909 280 837H240V797Z" fill="#306060"/>
<path d="M280 517C280 539.091 262.091 557 240 557L240 517L280 517Z" fill="#306060"/>
<path d="M240 917C240 894.909 257.909 877 280 877L280 917L240 917Z" fill="#306060"/>
<path d="M240 597C262.091 597 280 614.909 280 637H240V597Z" fill="#306060"/>
<path d="M280 397C257.909 397 240 379.091 240 357L280 357L280 397Z" fill="#306060"/>
<path d="M280 637C280 659.091 262.091 677 240 677L240 637L280 637Z" fill="#306060"/>
<path d="M240 677C262.091 677 280 694.909 280 717H240V677Z" fill="#F98560"/>
<path d="M240 437C240 414.909 257.909 397 280 397L280 437L240 437Z" fill="#F98560"/>
<path d="M240 717C262.091 717 280 734.909 280 757H240V717Z" fill="#306060"/>
<path d="M240 437C262.091 437 280 454.909 280 477H240V437Z" fill="#306060"/>
<path d="M493.852 143.689C486.764 143.688 481.037 137.942 481.059 130.855L481.074 125.938C481.077 125.122 481.741 124.459 482.558 124.46L485.356 124.46C490.081 124.461 493.9 128.291 493.885 133.016L493.852 143.689Z" fill="#306060"/>
<path d="M493.75 142.98C500.726 144.21 505.365 150.859 504.113 157.831L503.241 162.686C503.096 163.491 502.327 164.028 501.522 163.886L498.769 163.4C494.118 162.58 491.025 158.147 491.86 153.5L493.75 142.98Z" fill="#F98560"/>
<path d="M472.944 150.654C472.318 150.127 472.237 149.193 472.765 148.567L475.972 144.764C480.532 139.356 488.618 138.662 494.033 143.213L487.119 151.413C484.079 155.019 478.688 155.481 475.078 152.447L472.944 150.654Z" fill="#F98560"/>
<path d="M515.92 139.55C516.28 139.98 516.223 140.619 515.793 140.978L511.612 144.473C506.186 149.009 498.107 148.289 493.569 142.865L501.803 135.982C505.42 132.958 510.806 133.438 513.832 137.054L515.92 139.55Z" fill="#306060"/>
<defs>
<filter id="filter0_d" x="116" y="517" width="48" height="48" filterUnits="userSpaceOnUse" color-interpolation-filters="sRGB">
<feFlood flood-opacity="0" result="BackgroundImageFix"/>
<feColorMatrix in="SourceAlpha" type="matrix" values="0 0 0 0 0 0 0 0 0 0 0 0 0 0 0 0 0 0 127 0"/>
<feOffset dy="4"/>
<feGaussianBlur stdDeviation="2"/>
<feColorMatrix type="matrix" values="0 0 0 0 0 0 0 0 0 0 0 0 0 0 0 0 0 0 0.25 0"/>
<feBlend mode="normal" in2="BackgroundImageFix" result="effect1_dropShadow"/>
<feBlend mode="normal" in="SourceGraphic" in2="effect1_dropShadow" result="shape"/>
</filter>
</defs>
</svg>
