<svg enable-background="new 0 0 607 185.3" viewBox="0 0 607 185.3" xmlns="http://www.w3.org/2000/svg"><g enable-background="new"><path d="m199.5 103.4v75.7c0 2.1-1.7 3.8-3.8 3.8h-24.2c-2.1 0-3.8-1.7-3.8-3.8v-70.5c0-16.4-10.3-27.2-26-27.2-15.5 0-25.8 10.8-25.8 27.2v70.5c0 2.1-1.7 3.8-3.8 3.8h-24.4c-2.1 0-3.8-1.7-3.8-3.8v-70.5c0-16.4-10.3-27.2-26-27.2h-20.2c-3.1 0-5.7 2.6-5.7 5.7v92c0 2.1-1.7 3.8-3.8 3.8h-24.3c-2.1 0-3.8-1.7-3.8-3.8v-121.1c0-2.1 1.7-3.8 3.8-3.8h64.5.7c14.9 0 27.1 5.6 35.4 15.4 1.5 1.7 4.1 1.8 5.7.1 9.2-10.1 22.7-15.5 37.9-15.5 30.7 0 51.4 19.7 51.4 49.2z"/><path d="m326.6 180.2c0 1.5-1.2 2.8-2.8 2.8h-25.3c-1.5 0-2.7-1.2-2.8-2.7l-.3-7.8c-.1-2.4-3.1-3.6-4.7-1.8-8.6 9.5-21 14.6-34 14.6-26 0-43.6-15.7-43.6-39.2 0-24.4 21.3-40.3 53.7-40.3 7.7 0 16.1.7 24.7 2.2 1.7.3 3.2-1 3.2-2.7v-20.9c0-1.5-1.2-2.8-2.8-2.8h-68.1c-1.5 0-2.8-1.2-2.8-2.8v-19.5c0-1.5 1.2-2.8 2.8-2.8h100c1.5 0 2.8 1.2 2.8 2.8zm-34.2-50.5c-7.5-1.4-15-2.1-21.6-2.1-14.8 0-24.6 7-24.6 17.8 0 10.3 6.8 17.1 19.7 17.1 14.2 0 27.5-10.8 28.8-30 0-1.3-1-2.5-2.3-2.8z"/><path d="m448.2 0h20.9c3 0 5.5 2.5 5.5 5.5v172c0 3-2.5 5.5-5.5 5.5h-20c-3 0-5.4-2.3-5.5-5.3-.2-4.7-5.6-6.9-9.2-3.8-8.5 7.3-19.7 11.5-33.8 11.5-34.2 0-60.5-26-60.5-65 0-39.6 26.3-66.2 60.5-66.2h.2 36.3c3 0 5.5-2.5 5.5-5.5v-43.2c.1-3 2.6-5.5 5.6-5.5zm-5.5 86.9c0-3-2.5-5.5-5.5-5.5h-29.8c-20.5.3-34.1 15.7-34.1 38.4 0 22.8 13.8 38 34.7 38 20.6 0 34.7-15.2 34.7-38.2z"/><path d="m488.3 64c0-4.1 3.3-7.4 7.4-7.4h17.1c4.1 0 7.4 3.3 7.4 7.4v66.9c0 16.5 11.3 27.4 28.3 27 14.5-.4 25.9-12.5 25.9-27v-66.9c0-4.1 3.3-7.4 7.4-7.4h17.1c4.1 0 7.4 3.3 7.4 7.4v68.6c0 31.7-23.5 52.8-58.9 52.8-35.7 0-59.1-21.1-59.1-52.8z"/></g></svg>