<svg width="124" height="118" viewBox="0 0 124 118" fill="none" xmlns="http://www.w3.org/2000/svg">
<path fill-rule="evenodd" clip-rule="evenodd" d="M33.675 114.578C25.3242 98.0722 37.5279 80.0325 44.9093 63.1043C51.7421 47.4343 57.5608 30.0328 73.365 23.555C90.6597 16.4663 111.19 18.7243 126.35 29.7235C141.077 40.4081 146.985 59.0156 147.311 77.204C147.612 94.0103 140.203 109.51 127.985 121.009C115.653 132.613 99.6756 139.093 82.7708 137.94C63.7652 136.644 42.29 131.606 33.675 114.578Z" fill="#CB6B51"/>
<path fill-rule="evenodd" clip-rule="evenodd" d="M40.6815 78.4468C52.1697 67.9358 62.5172 53.3876 78.0284 54.444C94.0038 55.532 103.978 70.372 113.271 83.3905C123.664 97.9515 137.768 113.562 132.446 130.68C127.017 148.139 107.163 155.803 89.4054 160.146C74.0038 163.913 58.8374 159.706 44.9712 152.076C29.6837 143.662 11.1779 133.974 10.162 116.537C9.16793 99.474 28.0522 90.0016 40.6815 78.4468Z" fill="#EBB8AD"/>
</svg>
