<svg width="61" height="61" viewBox="0 0 61 61" fill="none" xmlns="http://www.w3.org/2000/svg">
<path fill-rule="evenodd" clip-rule="evenodd" d="M4.83087 34.2717C5.28419 25.2147 13.9815 20.546 20.5779 15.167C26.6839 10.1877 32.7844 4.22456 40.2995 5.34855C48.5232 6.57853 55.916 12.571 59.3036 20.959C62.5943 29.1071 60.7354 38.4577 56.8228 46.2615C53.2075 53.4723 46.9177 58.2382 39.6668 60.1254C32.3491 62.0301 24.7669 60.8643 18.5226 56.23C11.5024 51.0199 4.36322 43.6152 4.83087 34.2717Z" fill="#BA5A40"/>
<path d="M41.797 47.5705H11.6505L1 1H31.1465L41.797 47.5705Z" fill="black"/>
<path d="M41.797 47.5705H11.6505L1 1" stroke="black" stroke-width="1.5" stroke-linecap="round" stroke-linejoin="round"/>
<path d="M48.1006 47.5705H17.9541L7.30354 1H37.45L48.1006 47.5705Z" fill="#EBB8AD"/>
<path d="M17.1115 18.215H35.9895L33.283 6.37988H14.4048L17.1115 18.215Z" fill="#FBEAE9"/>
<path d="M33.2829 6.37988H14.4048L17.1115 18.215" stroke="black" stroke-width="1.5" stroke-linecap="round" stroke-linejoin="round"/>
<path d="M48.1006 47.5705H17.9541L7.30354 1" stroke="black" stroke-width="1.5" stroke-linecap="round" stroke-linejoin="round"/>
</svg>
