<svg width="60" height="60" viewBox="0 0 60 60" fill="none" xmlns="http://www.w3.org/2000/svg">
<path fill-rule="evenodd" clip-rule="evenodd" d="M14.3796 32.4238C14.679 25.1969 13.3921 16.95 18.4676 12.4071C23.695 7.72819 31.297 9.64971 38.132 11.1638C45.777 12.8574 54.8801 13.7366 58.4938 21.2738C62.1794 28.9609 58.4447 37.8593 54.3353 44.959C50.771 51.1168 44.8359 54.4733 38.2501 56.2477C30.9894 58.204 22.352 60.7416 16.6988 55.0995C11.1671 49.5785 14.0504 40.3684 14.3796 32.4238Z" fill="#E8AEA2"/>
<path d="M7.65936 21.2429C7.65936 21.2429 2.77914 14.851 5.31686 11.2289C7.85458 7.60682 10.7827 11.2289 10.7827 11.2289C10.7827 11.2289 6.2929 1.85411 15.8581 0.149605C25.4233 -1.5549 27.9611 11.8681 27.9611 11.8681C27.9611 11.8681 30.4988 5.05006 34.9886 7.18069C39.4784 9.31133 37.3311 14.4718 37.3311 14.4718C37.3311 14.4718 38.5023 11.2289 40.4544 12.0811C42.4065 12.9334 41.2352 15.9163 41.2352 15.9163C41.2352 15.9163 42.9921 13.5713 42.6017 17.6202" fill="#6B7849"/>
<path d="M9.52786e-06 22.947C-0.00648602 30.8432 3.30854 38.3056 8.9927 43.1903H38.2501C45.2966 37.1161 48.5842 27.2108 46.7368 17.6201H0.506007C0.169063 19.3719 -0.000510585 21.157 9.52786e-06 22.947Z" fill="black"/>
</svg>
