<svg width="233" height="310" viewBox="0 0 233 310" fill="none" xmlns="http://www.w3.org/2000/svg">
<path d="M250.773 200.851C250.773 200.851 252.706 204.762 245.872 205.706C239.039 206.65 237.106 202.739 241.017 200.806C244.928 198.873 234.64 173.94 232.707 170.029C230.774 166.118 171.296 159.013 164.508 150.201C157.72 141.389 178.265 128.802 170.488 122.912C162.711 117.023 155.511 126.264 148.678 127.208C141.844 128.152 103.142 129.429 93.4772 109.872C83.812 90.3157 150.516 80.8836 147.96 71.5965C145.404 62.3094 117.383 72.9252 114.782 73.3938C112.18 73.8623 90.37 78.1585 80.6143 78.1132C70.8586 78.068 55.5795 77.5021 53.6464 73.5908C51.7134 69.6795 58.5921 58.9799 56.6591 55.0686C54.7261 51.1573 43.9813 54.0342 40.7835 41.8317C37.5858 29.6292 77.9637 18.5901 81.875 16.6571C85.7863 14.7241 88.0854 10.3374 86.1523 6.42609C84.2193 2.51477 70.2768 -6.8108 61.5103 -9.77822C52.7437 -12.7456 48.8777 -20.5683 51.8451 -29.3348C54.8125 -38.1013 68.4795 -39.9891 74.3691 -47.7665C80.2587 -55.5439 62.7709 -71.2344 75.494 -79.9556C88.2171 -88.6769 106.649 -66.1529 113.482 -67.0968C120.316 -68.0407 124.638 -88.0273 136.327 -84.0708C156.782 -77.1468 147.744 -21.5803 159.433 -17.6237C168.784 -14.4584 184.649 -56.0352 190.538 -63.8126C196.428 -71.59 201.328 -76.4452 213.017 -72.4886C224.706 -68.5321 219.76 -53.9212 221.693 -50.0099C223.626 -46.0986 227.537 -48.0316 235.315 -42.142C243.092 -36.2524 239.411 -13.3504 233.522 -5.57299C227.632 2.20439 194.986 28.8888 203.708 41.6119C212.429 54.335 257.567 -2.03972 275.055 13.6508C292.543 29.3413 250.372 76.9494 245.471 81.8047C240.571 86.6599 245.426 91.5603 252.26 90.6164C259.093 89.6725 268.849 89.7178 274.693 91.6961C280.537 93.6744 282.471 97.5857 282.425 107.341C282.38 117.097 239.541 169.085 239.541 169.085L250.773 200.851ZM232.86 160.197C236.772 158.264 191.215 71.3022 173.772 45.856C156.33 20.4098 98.1578 -57.907 94.2465 -55.9739C90.3352 -54.0409 147.563 17.4424 166.939 46.7999C186.314 76.1574 228.949 162.13 232.86 160.197Z" fill="#6B7849"/>
<path fill-rule="evenodd" clip-rule="evenodd" d="M193.692 209.664C187.438 181.353 173.612 151.122 189.756 127.093C206.384 102.344 239.601 100.076 269.246 97.212C302.403 94.0081 340.706 85.7979 363.356 110.318C386.456 135.327 380.329 174.479 370.8 207.157C362.536 235.5 341.632 256.04 316.417 271.296C288.617 288.115 255.765 308.937 226.7 294.341C198.26 280.058 200.567 240.787 193.692 209.664Z" fill="#EBB8AD"/>
</svg>
