<svg width="84" height="88" viewBox="0 0 84 88" fill="none" xmlns="http://www.w3.org/2000/svg">
<path d="M82.2942 12.1035C84.6153 32.54 75.9097 48.2696 59.9515 61.1362C55.9155 64.4097 51.4111 67.3943 46.6175 70.0901C46.0665 70.3926 45.5155 70.6952 44.9645 70.9841C41.0131 73.1308 37.7506 74.628 37.5812 74.7114C37.5261 74.7389 37.4159 74.7802 37.4159 74.7526C37.4159 74.7251 37.4296 74.6839 37.4435 74.6839C36.7399 70.3805 36.4438 64.4219 36.9338 58.8668C38.1779 44.9087 45.795 46.6235 57.5547 44.384C57.596 44.384 57.6373 44.3839 57.6787 44.3702C58.8633 44.1501 60.0204 43.8613 61.1361 43.5037C68.4343 41.1996 75.1086 36.1379 78.7817 29.0758C80.476 25.8712 81.3024 22.8178 81.7983 20.3283C82.5463 15.7478 82.0784 13.0339 82.0601 12.3785C81.4505 18.2815 80.7105 22.638 77.0736 28.0718C73.8771 32.8591 68.7468 37.227 62.3621 39.3638C63.4227 35.1688 64.0013 31.0564 64.1253 27.2328C64.4696 18.4303 62.1692 11.3057 60.0892 6.75318C59.001 4.45627 57.9542 2.7783 57.2103 1.65047C56.5352 0.687697 56.1359 0.123785 56.0395 0C56.1221 0.137539 56.4665 0.742713 57.045 1.7605C57.6649 2.94334 58.5327 4.70385 59.3728 7.04202C61.136 11.6633 62.5961 18.7329 61.9074 27.109C61.6043 31.2627 60.6676 35.7052 59.1386 40.2165H59.1249C58.4637 40.3678 57.7612 40.4778 57.0587 40.5604C54.7583 40.8492 52.2788 40.9042 49.6203 41.138C37.844 42.1791 33.2276 47.7715 32.0298 58.3855C31.7406 61.1087 31.6166 63.8183 31.6441 66.569C30.0328 62.5712 27.9763 56.4878 28.4484 52.1962C29.1622 44.4893 38.0082 41.926 44.0552 38.3185C53.8699 32.4629 60.431 21.19 58.2984 7.82599C57.8438 5.32291 57.1964 3.43848 56.7143 2.18688C56.4663 1.55419 56.2459 1.08656 56.1082 0.770221C56.0119 0.536404 55.9291 0.38511 55.9016 0.316341C55.9153 0.38511 55.9704 0.550157 56.0531 0.797728C56.1771 1.11407 56.3424 1.60921 56.5214 2.25565C56.8794 3.53476 57.3341 5.46031 57.5408 7.92227C58.1648 14.8946 56.2651 21.4908 52.4303 27.054C50.0748 30.4512 46.7551 33.6009 42.6227 35.7877C36.9793 38.8103 26.095 41.6674 24.9083 51.7836C24.4296 55.607 25.3283 59.1689 26.3271 62.7317C25.2128 62.4597 24.2757 62.5193 24.0955 62.5116C16.0659 62.9039 8.47313 75.0248 2.38646 66.3765L0.21004 63.4194C-0.100168 67.6263 -0.312438 69.8037 1.436 72.9784C4.86882 79.1097 12.9465 81.2825 20.0044 81.6984C25.5555 81.9641 31.7857 80.9488 33.1594 80.8181C33.184 80.9558 33.4182 82.2624 33.3935 82.1248C33.4349 82.1798 33.3935 82.3586 33.49 82.3173C33.6288 82.2532 35.0889 81.5793 34.9501 81.6434C45.2284 76.8034 54.1334 72.0354 62.8854 64.6435C75.8165 53.8138 85.3168 37.6874 83.8506 19.8744C83.4362 15.6422 82.5218 13.0149 82.2942 12.1035ZM20.1285 80.2128C16.2854 79.8002 11.8086 78.6586 7.84142 76.1967C3.80265 73.6219 3.15619 70.7794 3.03401 70.5988V70.5713C3.02024 70.53 3.02024 70.4886 3.03401 70.475C3.03401 70.4063 3.07534 70.42 3.10289 70.5025C3.11666 70.53 3.13044 70.5438 3.13044 70.5438L3.36461 70.6813C8.73168 73.8079 13.7082 70.0063 18.2689 67.0228C20.8535 65.3382 24.0406 63.6616 26.9471 64.7259V64.7395C29.302 65.5354 30.9688 67.9146 31.7545 70.2686C31.7545 73.4611 32.766 78.6416 33.1595 80.8041C32.8702 80.8042 22.8146 80.5183 20.1285 80.2128Z" fill="#181B1B"/>
<path d="M36.813 83.2679C36.813 83.2679 36.7576 83.4624 36.5655 83.7101C34.9519 86.1695 29.7064 82.2841 28.1043 86.0564C27.6474 87.0836 28.0967 87.8624 28.1247 88C28.1247 88 28.1248 87.8039 28.2093 87.4985C28.9455 83.3194 35.786 87.9523 36.8012 83.8092C36.8582 83.4554 36.813 83.2679 36.813 83.2679Z" fill="#181B1B"/>
<path d="M48.1425 78.7115C44.0548 77.1618 38.7643 79.4347 36.6497 86.7146C40.5457 83.513 43.8577 79.9073 48.0563 80.1737C48.3322 81.3481 49.4058 82.2044 50.6593 82.1626C52.0868 82.1149 53.2053 80.9209 53.1576 79.4955C53.063 76.6653 49.1034 76.0398 48.1425 78.7115Z" fill="#181B1B"/>
<path d="M65.2468 68.8541C65.2468 68.8541 65.2387 69.1276 65.1529 69.5799C64.5045 75.3122 57.0611 76.906 53.2958 78.0226C58.7733 78.2164 63.8878 76.7361 65.3067 71.5748C65.676 70.2122 65.268 68.9988 65.2468 68.8541Z" fill="#181B1B"/>
<path d="M58.2854 75.067C61.6977 72.5392 60.1163 69.9535 60.1118 69.8159C60.0523 69.9535 60.1039 72.4162 57.5348 73.9841C56.3726 74.8473 54.9325 75.2154 52.7599 76.2618C53.3176 76.2938 56.8651 75.9443 58.2854 75.067Z" fill="#181B1B"/>
</svg>
