<svg viewBox="0 0 737 180" fill="none" xmlns="http://www.w3.org/2000/svg">
  <path fill-rule="evenodd" clip-rule="evenodd" d="M451.805 167.067l-.027.027-.026.028C444.364 175.448 433.367 180 421.844 180c-11.47 0-20.961-3.492-27.569-9.466-6.598-5.964-10.415-14.483-10.415-24.746 0-10.552 4.616-19.3 12.766-25.444 8.179-6.167 19.984-9.753 34.352-9.753 7.047 0 14.598.725 22.171 1.94 2.359.705 4.523-1.25 4.523-3.452v-18.97c0-2.258-1.886-3.729-3.736-3.729H392.22c-.7 0-1.201-.582-1.201-1.198V67.443c0-.451.146-.73.308-.891.162-.163.441-.308.893-.308h90.598c.618 0 1.201.5 1.201 1.2v109.14c0 .699-.583 1.199-1.201 1.199H459.86c-.871 0-1.201-.506-1.201-.953v-.021l-.249-7.215-.005-.048c-.354-3.174-4.298-4.776-6.6-2.479zm2.626-37.301l-.009-.002-.009-.002c-6.722-1.242-13.713-1.992-19.733-1.992-6.852 0-12.692 1.645-16.855 4.678-4.196 3.058-6.63 7.494-6.63 12.847 0 4.971 1.649 9.162 4.963 12.095 3.294 2.915 8.075 4.445 14.079 4.445 13.509 0 26.124-10.122 27.181-27.968.341-2.002-1.228-3.75-2.987-4.101zm127.503 40.186l-.007.006-.007.006C574.532 176.386 564.721 180 552.142 180c-30.096 0-53.289-23.022-53.289-57.37 0-35.356 23.214-58.603 53.289-58.603h33.079c3.416 0 6.205-2.784 6.205-6.192V18.909c0-2.299 1.695-3.909 3.67-3.909h19.008c1.975 0 3.67 1.61 3.67 3.909V174.12c0 2.012-1.654 3.663-3.67 3.663h-18.021c-2.102 0-3.669-1.489-3.669-3.416v-.037l-.003-.038c-.312-5.296-6.523-7.679-10.477-4.34zm3.287-83.818h-26.924c-9.587.128-17.649 3.773-23.303 10.126-5.644 6.34-8.806 15.281-8.806 25.877 0 10.482 3.23 19.366 8.972 25.643 5.751 6.288 13.939 9.867 23.647 9.867 9.709 0 17.898-3.579 23.65-9.9 5.742-6.31 8.969-15.255 8.969-25.857V92.326c0-3.408-2.789-6.192-6.205-6.192z" fill="#1B1918"/>
  <path d="M323.531 64.027c-13.506 0-25.239 4.805-33.361 13.614-1.807 2.13-5.183 1.972-7.099-.259-7.145-8.32-17.891-13.355-31.13-13.355h-58.752c-1.275 0-2.189.912-2.189 2.184V175.6c0 1.272.914 2.184 2.189 2.184h21.723c1.275 0 2.189-.912 2.189-2.184V92.573c0-3.694 3.075-6.44 6.451-6.44h18.268c7.452 0 13.724 2.508 18.131 7.07 4.403 4.559 6.835 11.054 6.835 18.833v63.563c0 1.272.914 2.184 2.189 2.184h21.724c1.391 0 2.435-1.023 2.435-2.184v-63.563c0-7.77 2.365-14.262 6.671-18.822 4.313-4.568 10.466-7.08 17.802-7.08 7.451 0 13.723 2.507 18.131 7.07 4.403 4.558 6.835 11.053 6.835 18.832v63.563c0 1.272.913 2.184 2.188 2.184h21.971c1.087 0 2.188-.97 2.188-2.184v-68.244c0-13.122-4.576-23.926-12.475-31.452-7.904-7.531-19.237-11.876-32.914-11.876zM684.946 180c-15.796 0-28.804-4.727-37.848-12.856-9.031-8.118-14.207-19.715-14.207-33.674V71.631a5.365 5.365 0 015.398-5.386h15.305a5.365 5.365 0 015.398 5.386v60.36c0 7.813 2.701 14.382 7.491 18.932 4.785 4.547 11.548 6.977 19.483 6.724 13.806-.265 24.686-11.949 24.686-25.656v-60.36a5.365 5.365 0 015.398-5.386h15.552A5.365 5.365 0 01737 71.63v61.839c0 13.959-5.175 25.556-14.207 33.674-9.044 8.129-22.052 12.856-37.847 12.856z" fill="#1B1918"/>
  <path d="M72.092 64c-12.671 18.096-37.613 22.494-55.71 9.823L3.78 64.999a4.615 4.615 0 01-1.133-6.428l8.824-12.602c6.336-9.049 18.807-11.248 27.855-4.912L72.092 64z" fill="#2C463C"/>
  <path d="M70.092 63c15.621-15.621 40.948-15.621 56.569 0l10.878 10.879a4.614 4.614 0 010 6.527l-10.878 10.878c-7.811 7.81-20.474 7.81-28.284 0L70.092 63z" fill="#F98560"/>
  <path d="M52.547 129.805a4.615 4.615 0 01-5.652-3.263l-3.982-14.861c-5.718-21.338 6.946-43.272 28.284-48.99L81.55 101.33c2.859 10.669-3.473 21.636-14.142 24.495l-14.86 3.981z" fill="#F98560"/>
  <path d="M100.946.275a3.158 3.158 0 013.421 2.87l1.468 16.779c1.925 22.007-14.354 41.409-36.362 43.334L65.987 23.41c-.963-11.004 7.177-20.704 18.18-21.667l16.78-1.468z" fill="#2C463C"/>
</svg>
