<svg width="59" height="18" viewBox="0 0 59 18" fill="none" xmlns="http://www.w3.org/2000/svg">
<path d="M17.2951 2.47571C17.7829 6.65591 15.9533 9.87331 12.5995 12.5051C11.7513 13.1747 10.8046 13.7852 9.79719 14.3366C9.68139 14.3985 9.56559 14.4604 9.4498 14.5194C8.61936 14.9585 7.93372 15.2648 7.89812 15.2819C7.88654 15.2875 7.86338 15.2959 7.86338 15.2903C7.86338 15.2847 7.86624 15.2762 7.86917 15.2762C7.72129 14.396 7.65908 13.1772 7.76205 12.0409C8.02352 9.18585 9.62433 9.53661 12.0958 9.07852C12.1044 9.07852 12.1131 9.07852 12.1218 9.07571C12.3708 9.0307 12.614 8.97162 12.8484 8.89847C14.3822 8.42719 15.7849 7.39184 16.5569 5.94732C16.9129 5.29182 17.0866 4.66727 17.1908 4.15806C17.348 3.22115 17.2497 2.66603 17.2458 2.53197C17.1177 3.73938 16.9622 4.6305 16.1979 5.74195C15.5261 6.72117 14.4479 7.61459 13.1061 8.05167C13.329 7.19361 13.4506 6.35243 13.4766 5.57034C13.549 3.76982 13.0656 2.31253 12.6284 1.38133C12.3997 0.91151 12.1797 0.568287 12.0234 0.337596C11.8815 0.140665 11.7976 0.0253197 11.7773 0C11.7947 0.028133 11.8671 0.151918 11.9887 0.360103C12.1189 0.602047 12.3013 0.962149 12.4779 1.44041C12.8484 2.38568 13.1553 3.83172 13.0105 5.54502C12.9468 6.39463 12.75 7.30333 12.4287 8.22609H12.4258C12.2868 8.25704 12.1392 8.27955 11.9915 8.29643C11.5081 8.35551 10.987 8.36676 10.4283 8.41459C7.95335 8.62752 6.98314 9.77144 6.73143 11.9425C6.67064 12.4995 6.64458 13.0537 6.65037 13.6164C6.31172 12.7986 5.87954 11.5543 5.97875 10.6765C6.12876 9.10007 7.98786 8.57576 9.2587 7.83786C11.3214 6.64012 12.7003 4.33431 12.2521 1.60077C12.1565 1.08878 12.0205 0.703325 11.9191 0.447315C11.867 0.317903 11.8207 0.222251 11.7918 0.157545C11.7715 0.109719 11.7541 0.0787724 11.7483 0.0647059C11.7512 0.0787724 11.7628 0.112532 11.7802 0.163171C11.8062 0.227877 11.841 0.329156 11.8786 0.461381C11.9539 0.723018 12.0494 1.11688 12.0928 1.62046C12.224 3.04661 11.8247 4.39584 11.0188 5.53376C10.5238 6.22865 9.82611 6.8729 8.95763 7.32021C7.77161 7.93846 5.48415 8.52287 5.23475 10.5921C5.13415 11.3741 5.32302 12.1027 5.53293 12.8315C5.29876 12.7758 5.10182 12.788 5.06395 12.7865C3.37644 12.8667 1.78072 15.346 0.501541 13.577L0.0441423 12.9721C-0.0210515 13.8326 -0.0656624 14.278 0.301791 14.9274C1.02324 16.1815 2.72085 16.6259 4.20416 16.711C5.37078 16.7654 6.68013 16.5577 6.96881 16.531C6.974 16.5591 7.02321 16.8264 7.01803 16.7982C7.02671 16.8095 7.01803 16.846 7.03829 16.8376C7.06747 16.8245 7.37434 16.6866 7.34516 16.6998C9.50527 15.7098 11.3767 14.7345 13.2161 13.2225C15.9337 11.0074 17.9303 7.70878 17.6222 4.06522C17.535 3.19954 17.3429 2.66214 17.2951 2.47571ZM4.23024 16.4071C3.42255 16.3227 2.4817 16.0892 1.64796 15.5857C0.799169 15.059 0.66331 14.4776 0.637632 14.4406V14.435C0.634737 14.4266 0.634737 14.4181 0.637632 14.4153C0.637632 14.4013 0.646317 14.4041 0.652107 14.421C0.655001 14.4266 0.657896 14.4294 0.657896 14.4294L0.70711 14.4575C1.83506 15.097 2.88094 14.3195 3.83942 13.7092C4.3826 13.3646 5.0524 13.0217 5.66323 13.2394V13.2422C6.15815 13.405 6.50843 13.8916 6.67356 14.3731C6.67356 15.0261 6.88614 16.0858 6.96884 16.5281C6.90805 16.5281 4.79475 16.4696 4.23024 16.4071Z" fill="#181B1B"/>
<path d="M7.73663 17.0321C7.73663 17.0321 7.72499 17.0719 7.68461 17.1226C7.3455 17.6256 6.24311 16.8309 5.9064 17.6025C5.81037 17.8126 5.90481 17.9719 5.91068 18C5.91068 18 5.91071 17.9599 5.92846 17.8975C6.08319 17.0426 7.52078 17.9903 7.73414 17.1428C7.74613 17.0705 7.73663 17.0321 7.73663 17.0321Z" fill="#181B1B"/>
<path d="M10.1177 16.1C9.25865 15.7831 8.14679 16.248 7.70239 17.7371C8.52116 17.0822 9.21722 16.3446 10.0996 16.3991C10.1576 16.6394 10.3832 16.8145 10.6466 16.806C10.9466 16.7962 11.1817 16.552 11.1717 16.2604C11.1518 15.6815 10.3197 15.5536 10.1177 16.1Z" fill="#181B1B"/>
<path d="M13.7123 14.0838C13.7123 14.0838 13.7106 14.1397 13.6926 14.2323C13.5563 15.4048 11.992 15.7308 11.2007 15.9592C12.3519 15.9988 13.4267 15.696 13.7249 14.6403C13.8025 14.3616 13.7168 14.1134 13.7123 14.0838Z" fill="#181B1B"/>
<path d="M12.2493 15.3546C12.9664 14.8376 12.6341 14.3087 12.6332 14.2805C12.6207 14.3087 12.6315 14.8124 12.0916 15.1331C11.8473 15.3097 11.5447 15.385 11.0881 15.599C11.2053 15.6055 11.9508 15.5341 12.2493 15.3546Z" fill="#181B1B"/>
<path d="M24.6371 5.82369C25.0421 6.4618 25.1771 6.95489 25.1921 7.91205V14.1191C25.1471 15.1343 25.0871 15.5259 24.6221 16.2075H27.067C26.632 15.5549 26.482 15.0473 26.467 14.1191V9.43481L28.912 15.1923C28.912 15.1923 29.182 15.7869 29.572 16.0189C29.992 16.2655 30.742 16.28 30.742 16.28L33.5769 9.15927V14.5397C33.5619 14.6702 33.5469 15.5984 32.9919 16.2075H36.0369C35.4669 15.3518 35.4669 14.5107 35.4669 14.5107V7.52048C35.4669 7.52048 35.4669 6.67934 36.0369 5.82369H33.5769V5.8527L30.697 13.6115L26.752 5.82369H24.6371Z" fill="#181B1B"/>
<path d="M38.0956 11.1316C38.5306 10.2615 39.4156 9.53633 40.3456 9.53633C40.9006 9.53633 40.9006 11.0011 40.9006 11.0011V11.0736C39.8806 11.5522 38.1556 12.3788 36.8206 13.0459C36.4606 13.2345 36.3256 13.51 36.3256 13.8436C36.3256 14.9023 37.8106 16.4105 38.7556 16.4105C39.6106 16.4105 40.6906 15.3663 40.9906 15.0618V15.3228C40.9906 16.164 41.6656 16.3235 41.6656 16.3235L43.3455 15.6274C42.8055 15.2213 42.7755 14.4817 42.7755 14.3512C42.7755 14.3367 42.7905 14.3222 42.7905 14.3222V10.7835C42.7905 10.7255 42.7605 9.59434 40.6306 8.7967C40.1356 8.60817 39.7156 8.53566 39.3256 8.53566C38.0356 8.53566 37.3306 9.31879 37.3306 9.31879L38.0956 11.1316ZM40.9156 11.6102L40.9906 14.5832C40.6906 14.7137 40.1506 14.8007 39.6556 14.8007C39.4156 14.8007 39.1906 14.7717 39.0106 14.7282C38.6356 14.6557 38.3356 14.2206 38.3356 13.7421C38.3356 13.394 38.5006 13.0459 38.9206 12.7849C40.1806 12.0453 40.6906 11.7407 40.9156 11.6102Z" fill="#181B1B"/>
<path d="M48.9042 14.6122C48.6492 14.7282 48.1543 14.8587 47.6443 14.8587C47.1643 14.8587 46.6843 14.7427 46.4143 14.4092C46.1143 14.0466 45.9643 13.1039 45.9643 12.1613C45.9643 11.1026 46.1593 10.0294 46.5643 9.72486C46.8193 9.55083 47.1193 9.47832 47.4043 9.47832C47.9593 9.47832 48.5142 9.75387 48.6942 10.0729C48.7992 10.2615 48.8592 10.45 48.9042 10.6095V14.6122ZM48.8892 9.02874C48.2143 8.7532 47.5993 8.62267 47.0593 8.62267C45.0643 8.62267 44.0293 10.392 44.0293 12.6254C44.0293 14.3512 44.7943 16.4105 46.3093 16.4105C47.2243 16.4105 48.5742 15.3518 48.9192 15.0763V16.3525C48.9192 16.3525 51.2592 15.4388 51.2592 15.4243C50.6742 14.9023 50.6742 14.0756 50.6742 14.0756V4.83752L48.3042 5.8817C48.8892 6.38929 48.8892 7.23043 48.8892 7.23043V9.02874Z" fill="#181B1B"/>
<path d="M56.6301 14.6122C56.0901 14.8152 55.6701 14.9023 55.3251 14.9023C53.8851 14.9023 53.8101 13.5535 53.8101 13.5535V8.56466L51.5901 9.55083C52.1751 10.0439 52.1751 10.8996 52.1751 10.8996V14.4817C52.1751 15.2068 52.2201 16.425 53.9451 16.425H53.9751C55.0851 16.4105 56.3451 15.3083 56.6601 15.0183V16.3235C56.6601 16.3235 59 15.3953 59 15.3808C58.415 14.8732 58.415 14.0466 58.415 14.0466V8.56466L56.0451 9.60884C56.6301 10.1164 56.6301 10.9576 56.6301 10.9576V14.6122Z" fill="#181B1B"/>
</svg>
