<svg width="140" height="130" viewBox="0 0 140 130" fill="none" xmlns="http://www.w3.org/2000/svg">
  <path d="M71.68 63.516c-12.6 17.958-37.39 22.329-55.37 9.763L3.758 64.507a4.576 4.576 0 01-1.126-6.382l8.692-12.389c6.344-9.042 18.826-11.243 27.88-4.916L71.68 63.516z" fill="#2C463C"/>
  <path d="M69.691 62.52c15.532-15.502 40.714-15.502 56.246 0l10.817 10.795a4.574 4.574 0 010 6.477l-10.722 10.702c-7.818 7.803-20.494 7.803-28.312 0L69.691 62.52z" fill="#F98560"/>
  <path d="M52.24 128.817a4.587 4.587 0 01-5.613-3.241l-3.942-14.682c-5.695-21.212 6.889-43.007 28.106-48.68l10.254 38.196c2.864 10.668-3.464 21.63-14.135 24.483l-14.67 3.924z" fill="#F98560"/>
  <path d="M100.376.273a3.136 3.136 0 013.396 2.849l1.453 16.574c1.918 21.881-14.266 41.168-36.148 43.079l-3.453-39.392C64.659 12.38 72.798 2.681 83.802 1.72L100.376.273z" fill="#2C463C"/>
</svg>
