<svg width="150" height="45" viewBox="0 0 150 45" fill="none" xmlns="http://www.w3.org/2000/svg">
<path d="M0.0654479 3.82979C1.83254 6.30788 2.42157 8.22278 2.48702 11.9399V36.0451C2.29068 39.9875 2.02889 41.5081 0 44.1552H10.668C8.77002 41.6208 8.11554 39.6496 8.05009 36.0451V17.8536L18.7181 40.2128C18.7181 40.2128 19.8962 42.5219 21.5978 43.423C23.4304 44.3805 26.7028 44.4368 26.7028 44.4368L39.0724 16.7835V37.6784C39.007 38.1852 38.9415 41.7897 36.5199 44.1552H49.8059C47.3189 40.8323 47.3189 37.5657 47.3189 37.5657V10.4193C47.3189 10.4193 47.3189 7.15269 49.8059 3.82979H39.0724V3.94243L26.5064 34.0738L9.29361 3.82979H0.0654479Z" fill="#181B1B"/>
<path d="M58.7886 24.4431C60.6866 21.0638 64.548 18.2478 68.6058 18.2478C71.0274 18.2478 71.0274 23.9362 71.0274 23.9362V24.2178C66.5769 26.0763 59.0504 29.2866 53.2255 31.8773C51.6548 32.6095 51.0657 33.6796 51.0657 34.975C51.0657 39.0864 57.5451 44.9437 61.6683 44.9437C65.3988 44.9437 70.1111 40.8886 71.42 39.7059V40.7197C71.42 43.9862 74.3652 44.6058 74.3652 44.6058L81.6954 41.9024C79.3392 40.3254 79.2083 37.4531 79.2083 36.9462C79.2083 36.8899 79.2738 36.8335 79.2738 36.8335V23.0914C79.2738 22.8661 79.1429 18.4731 69.8493 15.3755C67.6895 14.6433 65.857 14.3617 64.1553 14.3617C58.5268 14.3617 55.4508 17.403 55.4508 17.403L58.7886 24.4431ZM71.0928 26.3016L71.42 37.8473C70.1111 38.3542 67.755 38.6921 65.5952 38.6921C64.548 38.6921 63.5663 38.5795 62.7809 38.4105C61.1447 38.1289 59.8358 36.4393 59.8358 34.5807C59.8358 33.229 60.5557 31.8773 62.3882 30.8636C67.8859 27.9912 70.1111 26.8085 71.0928 26.3016Z" fill="#181B1B"/>
<path d="M105.949 37.9599C104.837 38.4105 102.677 38.9174 100.452 38.9174C98.3575 38.9174 96.2632 38.4668 95.0851 37.1715C93.7761 35.7635 93.1217 32.1026 93.1217 28.4418C93.1217 24.3304 93.9725 20.1627 95.7396 18.98C96.8522 18.3041 98.1611 18.0225 99.4047 18.0225C101.826 18.0225 104.248 19.0926 105.033 20.3317C105.491 21.0638 105.753 21.796 105.949 22.4155V37.9599ZM105.884 16.2766C102.939 15.2065 100.255 14.6996 97.8994 14.6996C89.1948 14.6996 84.6789 21.5707 84.6789 30.2441C84.6789 36.9462 88.0167 44.9437 94.627 44.9437C98.6193 44.9437 104.51 40.8323 106.015 39.7622V44.7184C106.015 44.7184 116.225 41.1702 116.225 41.1139C113.672 39.0864 113.672 35.8761 113.672 35.8761V0L103.332 4.05507C105.884 6.02628 105.884 9.29287 105.884 9.29287V16.2766Z" fill="#181B1B"/>
<path d="M139.659 37.9599C137.303 38.7484 135.471 39.0864 133.965 39.0864C127.682 39.0864 127.355 33.8486 127.355 33.8486V14.4743L117.669 18.3041C120.221 20.219 120.221 23.5419 120.221 23.5419V37.4531C120.221 40.2691 120.418 45 127.944 45H128.075C132.918 44.9437 138.416 40.6633 139.79 39.5369V44.6058C139.79 44.6058 150 41.0013 150 40.9449C147.448 38.9737 147.448 35.7635 147.448 35.7635V14.4743L137.107 18.5294C139.659 20.5006 139.659 23.7672 139.659 23.7672V37.9599Z" fill="#181B1B"/>
</svg>
